<?xml version="1.0" standalone="no"?> <!DOCTYPE svg PUBLIC "-//W3C//DTD SVG 1.0//EN" "http://www.w3.org/TR/2001/REC-SVG-20010904/DTD/svg10.dtd" > <svg xmlns="http://www.w3.org/2000/svg" width="100%" height="100%">
<defs >
<font id="myriadproblack" horiz-adv-x="935" ><font-face
    font-family="Myriad Pro Black"
    units-per-em="2048"
    panose-1="2 11 8 3 3 4 3 2 2 4"
    ascent="1536"
    descent="-512"
    alphabetic="0" />
<missing-glyph horiz-adv-x="1024" d="M0 0V1434H1024V0H0ZM512 809L860 1331H164L512 809ZM573 717L922 195V1239L573 717ZM164 102H860L512 625L164 102ZM102 1239V195L451 717L102 1239Z" />
<glyph unicode=" " glyph-name="space" horiz-adv-x="405" />
<glyph unicode="!" glyph-name="exclam" horiz-adv-x="581" d="M428 477H154L100 1380H481L428 477ZM291 -23H289Q197 -23 139 37T80 188Q80 283 138 342T289 401Q383 401 440 342T500 188Q500 97 442 37T291 -23Z" />
<glyph unicode="&quot;" glyph-name="quotedbl" horiz-adv-x="866" d="M59 1419H379L326 836H113L59 1419ZM489 1419H809L756 836H543L489 1419Z" />
<glyph unicode="#" glyph-name="numbersign" horiz-adv-x="1173" d="M489 569H664L694 770H518L489 569ZM399 0H188L242 350H76V569H281L311 770H139V989H344L395 1331H604L551 989H729L780 1331H989L938 989H1100V770H903L872 569H1038V350H836L784 0H573L627
350H451L399 0Z" />
<glyph unicode="$" glyph-name="dollar" horiz-adv-x="1173" d="M700 -180H467V10Q365 14 267 38T104 96L172 381Q356 291 530 291Q707 291 707 385Q707 432 659 465T494 535Q406 563 341 596T222 674T142 781T115 918Q115 1060 210 1161T477 1298V1487H711V1315Q884
1308 1020 1249L954 977Q951 978 929 987T895 1001T859 1013T814 1026T766 1036T708 1044T645 1047Q561 1047 524 1022T487 958Q487 921 541 888T729 807Q919 745 1000 654T1081 420Q1081 273 981 167T700 29V-180Z" />
<glyph unicode="%" glyph-name="percent" horiz-adv-x="1882" d="M446 1354H449Q626 1354 726 1242T827 958Q827 858 795 776T708 641T583 561T436 532Q271 532 162 643T53 934Q53 1111 160 1232T446 1354ZM442 1157H440Q380 1157 352 1099T324 942Q324 843 354
786T444 729Q557 729 557 942Q557 1157 442 1157ZM655 -23H465L1223 1350H1411L655 -23ZM1446 801H1448Q1626 801 1726 689T1827 406Q1827 305 1795 223T1707 89T1583 8T1436 -20Q1271 -20 1162 91T1053 383Q1053 497 1098 591T1235 743T1446 801ZM1442 604H1440Q1380
604 1352 545T1323 389Q1323 290 1353 233T1444 176Q1556 176 1556 391Q1556 604 1442 604Z" />
<glyph unicode="&amp;" glyph-name="ampersand" horiz-adv-x="1454" d="M1438 0H1014Q961 53 938 84Q790 -23 569 -23Q464 -23 378 0T234 61T138 151T81 257T63 369Q63 500 131 600T324 764V770Q280 813 251 884T221 1026Q221 1095 249 1160T330 1281T471 1369T666
1403Q842 1403 955 1311T1069 1065Q1069 848 809 717V709Q829 686 867 642T936 564T991 506Q1074 635 1104 813H1430Q1370 476 1188 283Q1363 80 1438 0ZM618 244H621Q712 244 768 289Q743 312 716 339T658 400T606 457T545 524T489 586Q412 525 412 432Q412 355
468 300T618 244ZM655 1176H653Q607 1176 579 1142T551 1061Q551 974 641 885Q704 933 731 972T758 1057Q758 1104 731 1140T655 1176Z" />
<glyph unicode="&apos;" glyph-name="quotesingle" horiz-adv-x="436" d="M59 1419H379L326 836H113L59 1419Z" />
<glyph unicode="(" glyph-name="parenleft" horiz-adv-x="671" d="M336 1413H586Q401 1076 401 588Q401 107 586 -236H336Q295 -171 259 -95T190 85T137 318T117 588Q118 858 182 1066T336 1413Z" />
<glyph unicode=")" glyph-name="parenright" horiz-adv-x="671" d="M334 -236H84Q166 -84 217 126T268 590Q268 843 217 1052T84 1413H334Q425 1273 489 1067T553 590Q552 404 517 235T436 -40T334 -236Z" />
<glyph unicode="*" glyph-name="asterisk" horiz-adv-x="964" d="M598 1403L801 1286L569 1024L571 1018L905 1096V860L567 922L565 918L801 662L596 543L479 872L475 870L365 543L162 662L393 922L391 924L61 860V1096L387 1018L389 1024L162 1286L369 1403L477
1077H483L598 1403Z" />
<glyph unicode="+" glyph-name="plus" horiz-adv-x="1220" d="M496 1090H727V657H1141V436H727V0H496V436H82V657H496V1090Z" />
<glyph unicode="," glyph-name="comma" horiz-adv-x="579" d="M233 -221L-10 -242Q104 83 152 381L518 401Q398 49 233 -221Z" />
<glyph unicode="-" glyph-name="hyphen" horiz-adv-x="671" d="M61 651H610V412H61V651Z" />
<glyph unicode="." glyph-name="period" horiz-adv-x="579" d="M311 -23H309Q217 -23 159 37T100 193Q100 287 159 347T311 408Q405 408 462 349T522 193Q522 97 464 37T311 -23Z" />
<glyph unicode="/" glyph-name="slash" horiz-adv-x="667" d="M285 -82H49L430 1403H666L285 -82Z" />
<glyph unicode="0" glyph-name="zero" horiz-adv-x="1173" d="M588 -23H586Q475 -23 386 15T237 117T138 271T81 457T63 664Q63 775 81 874T140 1062T241 1215T390 1316T588 1354Q701 1354 791 1315T940 1211T1038 1056T1093 870T1110 668Q1110 518 1078 394T983
175T819 29T588 -23ZM588 254H590Q741 254 741 666Q741 1075 588 1075Q515 1075 474 974T432 666Q431 456 472 355T588 254Z" />
<glyph unicode="1" glyph-name="one" horiz-adv-x="1173" d="M483 0V1006H479L217 887L158 1163L539 1331H840V0H483Z" />
<glyph unicode="2" glyph-name="two" horiz-adv-x="1173" d="M1069 0H84V223L268 385Q378 480 447 545T572 674T652 790T678 893Q678 968 628 1013T479 1059Q342 1059 195 950L94 1214Q177 1275 298 1314T553 1354Q783 1354 915 1238T1047 924Q1047 663 737 410L606
307V303H1069V0Z" />
<glyph unicode="3" glyph-name="three" horiz-adv-x="1173" d="M74 72L143 348Q201 319 288 294T461 268Q562 268 620 304T678 410Q678 487 610 528T444 569H305V831H436Q473 831 508 837T574 856T625 894T645 952Q645 1004 599 1034T467 1065Q391 1065 313 1041T182
989L113 1253Q181 1295 300 1324T551 1354Q767 1354 893 1259T1020 1016Q1020 794 776 709V705Q899 684 980 599T1061 389Q1061 204 905 91T492 -23Q361 -23 251 3T74 72Z" />
<glyph unicode="4" glyph-name="four" horiz-adv-x="1173" d="M981 0H633V299H55V539L518 1331H981V573H1128V299H981V0ZM391 573H633V801Q633 832 643 1067H635Q622 1039 596 984T549 884T506 799L393 578L391 573Z" />
<glyph unicode="5" glyph-name="five" horiz-adv-x="1173" d="M1012 1331V1028H492L473 885Q502 889 549 889Q785 889 928 782Q1077 671 1077 451Q1077 358 1037 274T922 123T731 17T473 -23Q354 -23 252 -2T86 51L147 328Q198 303 284 284T453 264Q498 264 539
272T617 299T676 351T698 430Q698 523 610 570T328 618Q236 618 150 606L238 1331H1012Z" />
<glyph unicode="6" glyph-name="six" horiz-adv-x="1173" d="M973 1348V1067Q923 1070 856 1067Q505 1052 436 815H442Q542 899 707 899Q818 899 911 851T1063 701T1122 463Q1122 328 1056 217T873 41T612 -23Q500 -23 407 9T251 96T143 226T79 387T59 565Q59
746 122 899T299 1155Q515 1344 848 1350Q896 1353 973 1348ZM606 246H608Q673 246 711 302T750 444Q750 481 741 515T713 578T662 624T586 641Q534 641 493 614T434 543Q424 522 424 465Q431 373 476 310T606 246Z" />
<glyph unicode="7" glyph-name="seven" horiz-adv-x="1173" d="M94 1331H1077V1102L543 0H150L686 1024V1028H94V1331Z" />
<glyph unicode="8" glyph-name="eight" horiz-adv-x="1173" d="M594 1354H596Q694 1354 774 1333T906 1278T995 1197T1047 1104T1063 1006Q1063 918 1015 841T879 719V715Q976 678 1045 595T1114 389Q1114 203 969 90T578 -23Q472 -23 384 -1T237 59T138 144T79
245T61 350Q61 574 287 676V680Q197 730 150 806T102 971Q102 1142 242 1248T594 1354ZM590 227H592Q656 227 696 266T737 365Q737 434 689 482T565 551Q505 535 472 492T438 387Q438 323 481 275T590 227ZM584 1108H582Q519 1108 485 1072T451 979Q451 929 495
890T610 827Q652 837 684 877T717 965Q717 1024 683 1066T584 1108Z" />
<glyph unicode="9" glyph-name="nine" horiz-adv-x="1173" d="M178 -16V266Q226 261 309 264Q461 267 565 326Q691 398 729 526L725 528Q644 453 477 453Q394 453 319 480T184 559T89 690T53 870Q53 1002 119 1113T306 1289T575 1354Q710 1354 814 1306T981 1176T1074
992T1106 776Q1106 376 872 168Q669 -14 309 -20Q277 -22 178 -16ZM567 1087H565Q502 1087 461 1034T420 895Q420 818 460 765T580 711Q675 711 715 774Q729 803 729 858Q730 915 716 964T664 1050T567 1087Z" />
<glyph unicode=":" glyph-name="colon" horiz-adv-x="579" d="M311 612H309Q217 612 160 672T102 825T160 978T311 1038Q404 1038 461 980T520 825Q520 732 463 672T311 612ZM311 -23H309Q218 -23 160 37T102 190Q102 283 160 343T311 403Q404 403 461 345T520
190Q520 97 463 37T311 -23Z" />
<glyph unicode=";" glyph-name="semicolon" horiz-adv-x="579" d="M231 -221L-8 -242Q105 89 152 381L516 401Q396 49 231 -221ZM319 612H317Q226 612 169 672T111 825T169 978T319 1038Q412 1038 469 980T528 825Q528 732 471 672T319 612Z" />
<glyph unicode="&lt;" glyph-name="less" horiz-adv-x="1220" d="M111 442V645L1110 1087V838L389 545V541L1110 250V0L111 442Z" />
<glyph unicode="=" glyph-name="equal" horiz-adv-x="1220" d="M1139 653H82V874H1139V653ZM1139 219H82V440H1139V219Z" />
<glyph unicode="&gt;" glyph-name="greater" horiz-adv-x="1220" d="M1110 653V432L111 0V248L852 541V545L111 840V1087L1110 653Z" />
<glyph unicode="?" glyph-name="question" horiz-adv-x="948" d="M602 473H279V526Q271 687 395 831Q433 876 450 898T486 955T504 1018Q504 1062 473 1088T377 1116Q325 1116 269 1100T174 1057L96 1321Q252 1405 459 1405Q563 1405 644 1379T776 1307T851 1204T877
1079Q877 1052 874 1027T863 977T848 935T826 893T804 857T777 822T751 792T724 763T700 737Q605 633 602 504V473ZM434 -23H432Q340 -23 282 37T223 188Q223 283 282 342T432 401Q526 401 583 342T643 188Q643 97 585 37T434 -23Z" />
<glyph unicode="@" glyph-name="at" horiz-adv-x="1605" d="M901 508L926 684Q900 690 879 690Q794 690 735 615T676 434Q676 322 762 322Q807 322 848 373T901 508ZM1100 -12L1137 -143Q1044 -182 959 -197T758 -213Q630 -213 514 -168T307 -42T164 163T111 434Q111
558 146 674T250 888T412 1058T627 1171T885 1212Q1157 1212 1335 1045T1513 618Q1513 399 1402 265T1114 131Q952 131 928 281H924Q879 208 814 170T672 131Q568 131 503 204T438 403Q438 496 471 581T563 731T714 835T913 874Q982 874 1056 859T1167 821L1110
438Q1098 362 1109 324T1159 285Q1228 282 1287 368T1346 616Q1346 815 1218 944T860 1073Q746 1073 642 1030T459 909T332 714T285 457Q285 205 428 67T807 -72Q974 -72 1100 -12Z" />
<glyph unicode="A" glyph-name="A" horiz-adv-x="1382" d="M846 319H489L412 0H29L430 1380H922L1333 0H934L846 319ZM539 592H795L731 840L664 1112H659Q650 1075 630 978T598 840L539 592Z" />
<glyph unicode="B" glyph-name="B" horiz-adv-x="1292" d="M127 8V1360Q290 1391 563 1391Q716 1391 812 1377T985 1323Q1070 1283 1120 1210T1171 1038Q1171 946 1116 870T946 750V745Q1072 710 1144 621T1217 410Q1217 225 1061 106Q898 -16 492 -16Q254 -16
127 8ZM494 1116V850H567Q683 850 742 887T801 993Q801 1054 754 1089T614 1124Q542 1124 494 1116ZM494 588V258Q520 254 600 254Q700 254 763 296T827 426Q827 509 761 548T582 588H494Z" />
<glyph unicode="C" glyph-name="C" horiz-adv-x="1232" d="M1108 326L1159 37Q1116 14 1022 -3T813 -20Q626 -20 481 35T247 187T115 405T70 668Q70 810 110 930T222 1136T390 1282T600 1372T838 1401Q948 1401 1040 1383T1182 1341L1110 1049Q990 1098 854 1098Q773
1098 703 1074T578 1001T491 874T459 692Q459 504 565 396T862 287Q1011 287 1108 326Z" />
<glyph unicode="D" glyph-name="D" horiz-adv-x="1454" d="M127 8V1360Q311 1391 567 1391Q763 1391 897 1358T1135 1253Q1384 1082 1384 723Q1384 523 1319 381T1145 154Q928 -16 496 -16Q271 -16 127 8ZM498 1100V274Q516 270 575 270Q765 267 879 377T993 711Q993
906 888 1007T610 1108Q534 1108 498 1100Z" />
<glyph unicode="E" glyph-name="E" horiz-adv-x="1130" d="M993 856V557H498V303H1053V0H127V1380H1024V1077H498V856H993Z" />
<glyph unicode="F" glyph-name="F" horiz-adv-x="1116" d="M127 0V1380H1014V1077H498V823H983V524H498V0H127Z" />
<glyph unicode="G" glyph-name="G" horiz-adv-x="1427" d="M1323 819V63Q1231 33 1100 10T846 -14Q461 -14 266 172Q170 263 120 392T70 670Q71 846 134 985T307 1213T562 1348T877 1395Q1008 1395 1112 1376T1276 1327L1202 1030Q1068 1090 874 1090Q787 1090
713 1067T582 996T492 871T459 690Q459 501 568 392T850 283Q938 283 967 295V532H782V819H1323Z" />
<glyph unicode="H" glyph-name="H" horiz-adv-x="1443" d="M127 1380H498V868H946V1380H1317V0H946V545H498V0H127V1380Z" />
<glyph unicode="I" glyph-name="I" horiz-adv-x="624" d="M127 1380H498V0H127V1380Z" />
<glyph unicode="J" glyph-name="J" horiz-adv-x="878" d="M391 528V1380H762V528Q762 237 629 107T238 -23Q94 -23 -6 10L33 307Q115 285 195 285Q291 285 341 339T391 528Z" />
<glyph unicode="K" glyph-name="K" horiz-adv-x="1323" d="M127 0V1380H494V795H498Q516 827 586 946L852 1380H1307L868 793L1323 0H895L604 559L494 418V0H127Z" />
<glyph unicode="L" glyph-name="L" horiz-adv-x="1081" d="M127 0V1380H498V309H1028V0H127Z" />
<glyph unicode="M" glyph-name="M" horiz-adv-x="1771" d="M1313 0L1296 496Q1288 703 1288 1051H1282Q1224 803 1137 510L999 29H711L596 510Q542 725 485 1051H481Q477 942 470 749T461 496L438 0H98L184 1380H682L772 1008Q839 746 881 504H887Q971 867 1012
1012L1116 1380H1602L1671 0H1313Z" />
<glyph unicode="N" glyph-name="N" horiz-adv-x="1443" d="M465 0H127V1380H563L782 956Q891 759 999 473H1006Q977 724 977 1053V1380H1315V0H926L690 459Q548 729 459 956H451Q465 696 465 340V0Z" />
<glyph unicode="O" glyph-name="O" horiz-adv-x="1495" d="M735 -23H733Q608 -23 501 13T315 115T181 268T98 462T70 682Q70 883 152 1046T391 1306T756 1403Q886 1403 996 1366T1184 1263T1317 1110T1398 919T1425 705Q1425 371 1239 174T735 -23ZM748 270H752Q884
270 959 386T1034 692Q1034 875 957 992T748 1110T539 992T461 690Q459 502 537 386T748 270Z" />
<glyph unicode="P" glyph-name="P" horiz-adv-x="1232" d="M127 0V1360Q321 1391 582 1391Q876 1391 1020 1280Q1092 1226 1135 1139T1178 948Q1178 732 1042 608Q881 465 584 465Q564 465 534 467T494 469V0H127ZM494 1104V752Q534 748 578 748Q686 748 748 799T811
940Q811 1019 758 1065T602 1112Q530 1112 494 1104Z" />
<glyph unicode="Q" glyph-name="Q" horiz-adv-x="1495" d="M1430 29L1325 -254Q1081 -180 772 -45Q728 -26 672 -23Q579 -16 493 15T329 104T194 242T104 434T70 678Q70 829 117 961T252 1191T470 1346T760 1403Q889 1403 998 1366T1184 1263T1317 1109T1398 919T1425
707Q1425 495 1340 336T1128 111V102Q1214 74 1430 29ZM748 270H752Q884 270 959 385T1034 692Q1034 877 957 993T748 1110Q618 1110 540 993T461 690Q459 501 537 386T748 270Z" />
<glyph unicode="R" glyph-name="R" horiz-adv-x="1263" d="M127 0V1360Q328 1391 573 1391Q898 1391 1040 1282Q1176 1177 1176 983Q1176 864 1104 774T940 649V643Q1059 589 1116 395Q1131 345 1155 249T1198 88T1229 0H852Q810 83 756 319Q729 438 686 478T553
518H494V0H127ZM494 1108V784H590Q693 784 751 830T809 954Q809 1031 760 1073T618 1116Q530 1116 494 1108Z" />
<glyph unicode="S" glyph-name="S" horiz-adv-x="1148" d="M82 63L152 369Q223 333 318 308T510 283Q603 283 650 312T698 395Q698 445 650 478T481 553Q92 693 92 969Q92 1156 242 1278T647 1401Q858 1401 1020 1331L942 1034Q798 1100 643 1100Q560 1100 515
1072T469 997Q469 949 518 921T717 836Q902 767 988 666T1075 420Q1075 329 1039 251T933 111T749 15T487 -20Q371 -20 259 5T82 63Z" />
<glyph unicode="T" glyph-name="T" horiz-adv-x="1167" d="M395 0V1069H43V1380H1124V1069H766V0H395Z" />
<glyph unicode="U" glyph-name="U" horiz-adv-x="1427" d="M125 1380H496V596Q496 437 550 354T713 270Q932 270 932 596V1380H1303V618Q1303 301 1149 139T702 -23Q125 -23 125 627V1380Z" />
<glyph unicode="V" glyph-name="V" horiz-adv-x="1374" d="M901 0H463L25 1380H430L578 838Q642 607 692 354H696Q742 586 809 831L958 1380H1352L901 0Z" />
<glyph unicode="W" glyph-name="W" horiz-adv-x="1855" d="M758 0H348L31 1380H428L508 868L578 383H582Q609 573 664 874L752 1380H1147L1233 850Q1269 611 1294 393H1298Q1325 594 1368 874L1450 1380H1825L1485 0H1081L989 541Q955 749 932 954H928Q885 651
862 541L758 0Z" />
<glyph unicode="X" glyph-name="X" horiz-adv-x="1292" d="M1268 0H840L739 225Q723 260 633 465H629Q614 418 580 333T539 227L446 0H27L416 698L41 1380H465L559 1161Q609 1043 651 932H655L737 1159L821 1380H1243L868 707L1268 0Z" />
<glyph unicode="Y" glyph-name="Y" horiz-adv-x="1288" d="M819 0H449V557L14 1380H438L555 1069Q610 927 649 813H653Q690 927 741 1069L854 1380H1272L819 571V0Z" />
<glyph unicode="Z" glyph-name="Z" horiz-adv-x="1204" d="M43 0V197L653 1067V1075H100V1380H1133V1169L541 313V305H1143V0H43Z" />
<glyph unicode="[" glyph-name="bracketleft" horiz-adv-x="671" d="M565 -229H129V1405H565V1206H389V-31H565V-229Z" />
<glyph unicode="\" glyph-name="backslash" horiz-adv-x="667" d="M618 -82H383L33 1403H268L618 -82Z" />
<glyph unicode="]" glyph-name="bracketright" horiz-adv-x="671" d="M106 1405H543V-229H106V-31H283V1206H106V1405Z" />
<glyph unicode="^" glyph-name="asciicircum" horiz-adv-x="1220" d="M1151 352H893L612 1053H606L326 352H72L504 1331H719L1151 352Z" />
<glyph unicode="_" glyph-name="underscore" horiz-adv-x="1024" d="M0 -154H1024V-256H0V-154Z" />
<glyph unicode="`" glyph-name="grave" horiz-adv-x="614" d="M-8 1446H319L494 1126H242L-8 1446Z" />
<glyph unicode="a" glyph-name="a" horiz-adv-x="1122" d="M1010 586V246Q1010 82 1026 0H692L674 88H666Q569 -23 387 -23Q237 -23 145 70T53 295Q53 394 96 469T218 592T403 662T639 686V694Q639 780 473 780Q399 780 322 759T188 707L125 938Q188 973 296 1001T543
1030Q669 1030 761 997T907 902T985 762T1010 586ZM651 379V461Q416 461 416 330Q416 283 444 258T520 233Q561 233 597 259T647 326Q651 342 651 379Z" />
<glyph unicode="b" glyph-name="b" horiz-adv-x="1249" d="M113 317V1456H483V905H487Q532 964 605 997T774 1030Q955 1030 1071 892T1186 524Q1186 392 1147 286T1042 113T894 12T723 -23Q635 -23 560 13T436 129H432L418 0H104Q113 119 113 317ZM483 573V438Q483
415 487 387Q499 336 539 301T633 266Q716 266 763 328T811 508Q811 616 767 682T633 748Q579 748 538 713T487 623Q483 589 483 573Z" />
<glyph unicode="c" glyph-name="c" horiz-adv-x="925" d="M848 293L887 23Q798 -20 610 -20Q357 -20 210 118T63 496Q63 605 101 700T211 869T397 985T655 1028Q786 1028 887 993L836 723Q774 748 676 748Q572 748 507 682T442 508Q442 391 511 329T686 266Q781
266 848 293Z" />
<glyph unicode="d" glyph-name="d" horiz-adv-x="1249" d="M764 1456H1135V317Q1135 136 1143 0H813L799 135H795Q748 55 666 16T492 -23Q312 -23 188 121T63 496Q62 620 99 722T198 891T342 993T514 1030Q692 1030 760 932H764V1456ZM764 459V571Q764 604 762
618Q751 674 712 711T616 748Q529 748 484 680T438 506Q438 393 487 332T614 270Q669 270 708 304T758 391Q764 412 764 459Z" />
<glyph unicode="e" glyph-name="e" horiz-adv-x="1103" d="M1036 375H414Q423 317 497 284T674 250Q827 250 948 289L995 43Q833 -20 618 -20Q354 -20 209 116T63 494Q63 566 81 639T141 783T241 908T389 996T586 1030Q704 1030 795 989T941 876T1023 712T1051
514Q1051 435 1036 375ZM410 625H711Q711 650 705 675T684 727T639 771T567 788Q529 788 499 772T450 730T422 678T410 625Z" />
<glyph unicode="f" glyph-name="f" horiz-adv-x="743" d="M528 0H158V737H29V1008H158V1040Q158 1132 191 1222T289 1372Q402 1477 582 1477Q663 1477 752 1458L745 1176Q698 1186 651 1186Q592 1186 558 1150T524 1057V1008H709V737H528V0Z" />
<glyph unicode="g" glyph-name="g" horiz-adv-x="1220" d="M1106 698V147Q1106 -167 948 -303Q803 -428 524 -428Q296 -428 150 -352L219 -74Q271 -104 350 -125T510 -147Q614 -147 678 -90T743 80V125H739Q648 12 487 12Q302 12 183 148T63 502Q63 735 195 882T520
1030Q697 1030 780 899H784L797 1008H1114Q1106 880 1106 698ZM737 457V592Q737 611 733 639Q721 694 687 724T602 754Q533 754 486 689T438 508Q438 408 482 345T602 281Q651 281 686 309T731 381Q737 401 737 457Z" />
<glyph unicode="h" glyph-name="h" horiz-adv-x="1226" d="M113 0V1456H483V901H487Q535 960 606 995Q674 1030 760 1030Q930 1030 1022 914T1114 584V0H743V543Q743 733 612 733Q529 733 492 653Q483 632 483 594V0H113Z" />
<glyph unicode="i" glyph-name="i" horiz-adv-x="598" d="M483 0H113V1008H483V0ZM299 1112H297Q213 1112 162 1162T111 1286Q111 1364 162 1413T299 1462T434 1413T487 1286Q487 1212 435 1162T299 1112Z" />
<glyph unicode="j" glyph-name="j" horiz-adv-x="638" d="M-41 -442L-76 -156Q51 -146 102 -94Q136 -62 149 6T162 213V1008H532V135Q532 -183 381 -315Q236 -442 -41 -442ZM346 1112H344Q260 1112 209 1162T158 1286Q158 1364 209 1413T346 1462T482 1414T535
1286Q535 1212 483 1162T346 1112Z" />
<glyph unicode="k" glyph-name="k" horiz-adv-x="1177" d="M483 1456V598H487Q535 693 553 721L719 1008H1159L811 602L1210 0H756L557 385L483 287V0H113V1456H483Z" />
<glyph unicode="l" glyph-name="l" horiz-adv-x="598" d="M113 0V1456H483V0H113Z" />
<glyph unicode="m" glyph-name="m" horiz-adv-x="1783" d="M115 0V664Q115 837 106 1008H416L430 881H438Q546 1030 737 1030Q834 1030 906 988T1010 868H1014Q1070 945 1153 989Q1230 1030 1331 1030Q1494 1030 1583 916T1673 592V0H1315V537Q1315 733 1196 733Q1113
733 1083 647Q1073 622 1073 573V0H715V547Q715 733 596 733Q520 733 483 651Q473 621 473 575V0H115Z" />
<glyph unicode="n" glyph-name="n" horiz-adv-x="1226" d="M113 0V664Q113 837 104 1008H424L440 879H446Q462 903 486 926T548 974T638 1014T750 1030Q925 1030 1019 916T1114 594V0H743V549Q743 733 614 733Q530 733 494 645Q483 623 483 571V0H113Z" />
<glyph unicode="o" glyph-name="o" horiz-adv-x="1206" d="M600 -23H598Q446 -23 326 37T135 217T63 496Q63 739 212 884T618 1030Q854 1030 998 887T1143 514Q1143 381 1098 276T977 107T804 10T600 -23ZM606 238H608Q682 238 722 309T762 504Q762 618 724 694T608
770Q523 770 484 694T444 504Q444 384 484 311T606 238Z" />
<glyph unicode="p" glyph-name="p" horiz-adv-x="1249" d="M113 -406V664Q113 837 104 1008H424L440 879H444Q559 1030 772 1030Q851 1030 925 995T1057 897T1151 734T1186 516Q1186 409 1159 319T1088 166T984 61T859 -3T727 -23Q645 -23 581 5T487 74H483V-406H113ZM483
565V440Q483 406 489 379Q501 328 540 293T633 258Q715 258 763 323T811 498Q811 609 767 675T637 741Q582 741 540 704T487 612Q483 598 483 565Z" />
<glyph unicode="q" glyph-name="q" horiz-adv-x="1249" d="M766 -406V115H762Q666 -23 475 -23Q395 -23 322 12T190 112T98 275T63 492Q63 619 101 723T202 893T343 994T504 1030Q688 1030 772 903H776L784 1008H1143Q1142 973 1141 909T1138 792T1137 694V-406H766ZM766
444V578Q766 606 762 618Q753 671 713 707T616 743Q528 743 483 677T438 504Q438 392 487 329T614 266Q669 266 710 301T760 385Q766 403 766 444Z" />
<glyph unicode="r" glyph-name="r" horiz-adv-x="825" d="M113 0V668Q113 900 104 1008H420L434 825H442Q479 930 556 980T711 1030Q758 1030 784 1024V678Q741 688 690 688Q609 688 556 655T487 561Q483 529 483 498V0H113Z" />
<glyph unicode="s" glyph-name="s" horiz-adv-x="923" d="M59 51L123 311Q168 283 252 260T401 236Q461 236 486 249T512 291Q512 319 488 335T381 377Q224 426 153 507T84 684Q84 836 204 933T522 1030Q689 1030 821 973L762 723Q645 778 539 778Q438 778 438
721Q438 696 469 677T590 629Q734 582 799 506T866 317Q866 166 749 73T406 -20Q198 -20 59 51Z" />
<glyph unicode="t" glyph-name="t" horiz-adv-x="784" d="M158 1196L518 1294V1008H727V737H518V449Q518 358 543 320T635 281Q692 281 723 289V8Q648 -20 504 -20Q425 -20 359 5T252 72Q158 164 158 385V737H33V1008H158V1196Z" />
<glyph unicode="u" glyph-name="u" horiz-adv-x="1224" d="M1108 1008V344Q1108 172 1116 0H797L780 133H774Q669 -23 469 -23Q298 -23 205 88T111 414V1008H481V473Q481 274 610 274Q656 274 686 300T729 360Q737 380 737 414V1008H1108Z" />
<glyph unicode="v" glyph-name="v" horiz-adv-x="1128" d="M16 1008H418L526 580Q552 480 573 342H580Q600 482 625 580L725 1008H1112L745 0H375L16 1008Z" />
<glyph unicode="w" glyph-name="w" horiz-adv-x="1574" d="M16 1008H393L451 637Q484 434 500 303H504Q512 356 523 413T550 540T571 635L651 1008H940L1018 649Q1023 623 1039 545T1066 412T1083 303H1087Q1105 469 1139 653L1198 1008H1559L1257 0H909L840 299Q818
398 784 606H780Q762 437 729 303L653 0H305L16 1008Z" />
<glyph unicode="x" glyph-name="x" horiz-adv-x="1114" d="M6 1008H418L498 858L571 715H578Q615 805 643 864L711 1008H1110L784 530L1112 0H694L614 162Q569 250 549 307H543L479 162L406 0H2L336 514L6 1008Z" />
<glyph unicode="y" glyph-name="y" horiz-adv-x="1116" d="M10 1008H420L541 555Q548 527 563 464T584 375H592Q597 396 609 460T629 553L721 1008H1114L899 367Q792 68 711 -79T541 -305Q399 -430 205 -453L129 -141Q196 -130 256 -102Q325 -75 375 -10Q393 15
393 35Q393 59 379 88L10 1008Z" />
<glyph unicode="z" glyph-name="z" horiz-adv-x="995" d="M49 0V211L307 524L479 711V715H82V1008H930V786L688 494Q575 360 510 297V293H948V0H49Z" />
<glyph unicode="{" glyph-name="braceleft" horiz-adv-x="671" d="M63 498L66 678Q105 680 133 690T177 712T202 743T213 777T215 813Q215 877 205 967Q195 1059 195 1124Q195 1405 512 1405H598V1204H561Q503 1203 478 1170T453 1073Q453 1047 461 969Q469 895
469 836Q470 718 426 664T283 590V586Q382 566 426 513T469 342Q469 283 461 205T453 104Q453 39 477 5T561 -31H598V-229H512Q195 -229 195 49Q195 124 207 207Q215 317 215 365Q215 384 213 398T202 431T178 463T133 485T63 498Z" />
<glyph unicode="|" glyph-name="bar" horiz-adv-x="618" d="M182 1536H434V-512H182V1536Z" />
<glyph unicode="}" glyph-name="braceright" horiz-adv-x="671" d="M608 678L606 498Q557 495 525 482T480 447T462 408T457 365Q457 317 465 207Q475 115 475 49Q475 -229 158 -229H72V-31H109Q169 -30 193 4T217 104Q217 121 215 156T211 205Q203 283 203 342Q202
460 246 513T389 586V590Q291 609 247 663T203 836Q203 858 209 969Q217 1047 217 1073Q217 1201 109 1204H72V1405H158Q475 1405 475 1124Q475 1059 465 967Q457 859 457 813Q457 787 461 768T480 728T526 694T608 678Z" />
<glyph unicode="~" glyph-name="asciitilde" horiz-adv-x="1220" d="M309 377H82Q82 596 163 695T387 795Q460 795 520 772T670 694Q777 630 806 621Q825 614 842 614Q872 614 889 651T911 780H1139Q1143 663 1123 579T1062 448T968 380T850 358Q776 358 714 382T567
459Q561 462 551 469Q482 512 451 528T395 545Q360 545 338 509T309 377Z" />
</font>
</defs>
</svg>
